<svg width="1288" height="1278" viewBox="0 0 1288 1278" fill="none" xmlns="http://www.w3.org/2000/svg">
<g clip-path="url(#clip0_43_2)">
<rect x="1041" y="497" width="247" height="780" fill="black"/>
<rect x="508" y="1277" width="247" height="780" transform="rotate(-90 508 1277)" fill="black"/>
<path d="M0 638.667V1277.33H400.533H801.2L809.6 1273.33C815.467 1270.53 817.067 1269.33 814.8 1269.33C813.067 1269.33 812 1268.93 812.533 1268.27C813.067 1267.73 814.933 1267.33 816.4 1267.33C818.4 1267.33 819.467 1266.4 819.733 1264.27C820.133 1261.47 824 1260 824 1262.67C824 1263.33 823.467 1264 822.667 1264C822 1264 821.333 1264.53 821.333 1265.33C821.333 1267.47 824 1266.93 827.467 1264.13C829.467 1262.53 830.133 1261.2 829.333 1260.67C828.533 1260.13 828.667 1259.07 830 1257.87C831.067 1256.67 832 1254 832 1251.87V1248H843.2H854.4L857.2 1243.47C860.533 1238.13 860.667 1237.33 857.733 1237.33C856 1237.33 855.867 1236.93 857.067 1235.73C858.4 1234.4 859.333 1234.4 861.333 1235.73C862.933 1236.67 864 1236.8 864 1236C864 1235.33 866.533 1234.67 869.6 1234.67C874.533 1234.67 875.867 1234 880.267 1229.2C883.067 1226.13 885.333 1223.2 885.333 1222.67C885.333 1222.13 886.8 1222 888.533 1222.27C890.667 1222.67 892.667 1222 894.533 1220.13C896.133 1218.53 897.867 1217.33 898.533 1217.33C900.8 1217.33 908 1209.2 910 1204.53C912.133 1199.47 913.867 1198.8 916.133 1202.53C917.733 1204.93 917.867 1204.93 922.133 1202C927.6 1198.27 930.8 1195.2 929.867 1194.4C929.6 1194 931.2 1192.93 933.6 1191.87C938.933 1189.73 940.267 1188.13 939.333 1184.53C938.8 1182.13 939.6 1181.6 946 1180.13C953.6 1178.4 954.4 1177.6 951.733 1174.93C950.533 1173.73 950.8 1173.33 953.2 1173.33C959.467 1173.33 970.533 1164.67 970.667 1159.6C970.667 1158.4 971.6 1157.33 972.8 1157.33C974 1157.33 974.667 1156.4 974.533 1154.93C973.867 1150.67 976 1147.33 982 1143.6C985.867 1141.07 988 1138.8 988 1137.07C988 1134.93 988.4 1134.67 989.867 1135.87C991.2 1137.07 991.867 1136.93 992.533 1135.33C992.933 1134.13 994.933 1133.33 997.2 1133.33C1001.47 1133.33 1004 1131.2 1000.53 1130.4C998.8 1130.13 999.067 1129.33 1001.87 1126.13C1003.73 1123.87 1005.33 1120.67 1005.6 1118.8C1005.87 1116.13 1006.67 1115.33 1009.07 1115.47C1010.67 1115.6 1012 1115.07 1012 1114.4C1012 1113.73 1012.53 1113.47 1013.2 1114C1013.87 1114.4 1015.47 1113.6 1016.8 1112.4C1019.07 1110.13 1019.07 1110 1016.27 1109.6C1014.67 1109.33 1013.33 1108.53 1013.33 1107.87C1013.33 1106.4 1014.27 1106.4 1019.47 1107.87C1023.33 1108.93 1023.87 1108.67 1026.8 1103.87C1028.53 1101.07 1030.93 1098.67 1032.13 1098.67C1037.2 1098.67 1044.53 1086.8 1039.73 1086.53C1038.8 1086.53 1039.2 1086 1040.67 1085.33C1042.13 1084.8 1045.07 1084.67 1047.07 1085.07C1049.87 1085.47 1050.8 1085.2 1050.53 1083.87C1050.4 1082.8 1050.67 1081.07 1051.2 1080C1051.6 1078.8 1051.2 1075.33 1050.13 1072.4C1048.27 1067.07 1048.27 1066.8 1050.8 1066C1052.27 1065.47 1053.87 1065.47 1054.27 1065.87C1054.8 1066.27 1055.73 1065.33 1056.67 1063.6C1057.6 1061.73 1059.2 1060.8 1061.07 1060.93C1063.2 1061.2 1064.53 1059.87 1066.8 1055.33C1069.07 1050.93 1070.4 1049.47 1072.13 1050C1073.6 1050.53 1074.8 1049.6 1076 1046.67C1076.93 1044.53 1078.13 1042.67 1078.8 1042.67C1079.47 1042.67 1080 1041.47 1080 1039.87C1080 1037.33 1082.27 1034.27 1090.67 1025.6C1092.53 1023.73 1094.67 1019.73 1095.33 1016.8C1096.13 1013.73 1097.47 1011.2 1098.4 1011.2C1099.33 1011.07 1100.67 1010.93 1101.47 1010.8C1102.53 1010.67 1102.53 1010.13 1101.47 1008.8C1100.13 1007.33 1100.4 1006.67 1102.53 1006C1104.13 1005.6 1106.4 1005.47 1107.87 1006C1109.33 1006.4 1110.67 1006 1111.07 1004.8C1111.6 1003.33 1110.8 1003.07 1106.53 1003.6C1102 1004.27 1101.47 1004 1102.13 1002.13C1102.53 1000.93 1104.53 999.601 1106.53 999.067C1110.53 998.134 1112 996.401 1112 992.667C1112 990.267 1117.33 981.067 1121.47 976.267C1122.53 975.067 1122.4 974.001 1121.33 972.667C1120.13 971.201 1120.13 970.667 1121.2 970.667C1122 970.667 1122.67 969.467 1122.67 968.134C1122.67 966.134 1123.47 965.601 1126.4 965.734C1129.87 966.001 1130 965.734 1130.4 959.334C1130.93 952.134 1132.8 950.001 1138.67 950.001C1141.33 950.001 1142.13 949.201 1142.4 946.267C1142.93 942.401 1143.87 941.734 1146.4 944.267C1148.67 946.534 1152.53 942.667 1155.33 935.067C1157.2 930.134 1157.33 928.801 1155.87 927.867C1153.33 926.401 1157.73 924.801 1161.6 925.734C1163.07 926.134 1166.27 925.601 1168.53 924.401C1170.8 923.201 1174.27 922.267 1176.4 922.401C1178.93 922.667 1180 922.134 1180 920.534C1180 919.334 1181.87 916.134 1184 913.334C1186.27 910.534 1188 907.334 1188 906.267C1188 903.201 1191.73 900.001 1195.47 900.001C1197.33 900.001 1199.07 899.067 1199.47 898.001C1200 896.801 1202 896.001 1204.13 896.001C1206.27 896.001 1209.2 894.801 1210.67 893.334C1213.47 890.534 1218.67 889.734 1218.67 892.001C1218.67 892.667 1217.47 893.334 1216 893.334C1214.53 893.334 1213.33 893.867 1213.33 894.667C1213.33 896.401 1219.6 896.401 1220.27 894.667C1220.53 894.001 1224.4 892.934 1229.07 892.534C1233.6 892.001 1237.33 891.067 1237.33 890.534C1237.33 889.867 1238 889.334 1238.67 889.334C1239.47 889.334 1240 891.334 1239.87 893.601C1239.6 898.934 1244.27 910.001 1247.2 911.067C1249.47 912.001 1250.13 916.801 1248 917.601C1245.87 918.267 1248.13 923.867 1250.8 924.667C1252.13 925.201 1253.33 926.134 1253.33 926.801C1253.33 927.467 1254.53 928.001 1256 928.001C1257.73 928.001 1258.67 928.934 1258.67 930.667C1258.67 932.134 1259.47 933.334 1260.4 933.334C1262.8 933.334 1266.13 940.401 1264.13 941.067C1263.33 941.334 1262.67 942.801 1262.67 944.267C1262.67 946.401 1263.33 946.801 1266 946.401C1268.27 945.867 1269.33 946.267 1269.33 947.467C1269.33 949.734 1273.87 949.867 1277.73 947.867C1279.33 946.934 1282.27 946.267 1284.27 946.401L1288 946.534V473.201V0.000610352H644H0V638.667ZM705.467 285.734C799.467 302.667 881.6 355.067 936.533 432.934C968.8 478.801 989.2 529.734 998.267 588.001C1001.6 610.001 1001.6 667.467 998.133 690.001C992.267 728.134 981.6 762.134 964.667 796.667C945.867 834.801 926.667 861.467 895.467 892.801C840.267 948.001 772.267 981.867 694 993.334C670.4 996.667 621.6 997.067 598.267 994.001C518.133 983.467 448 949.067 390.667 892.001C330.267 831.867 293.867 754.134 286.667 670.001C277.6 562.801 314.933 460.934 391.333 384.667C447.067 328.934 516.667 294.667 597.067 283.334C606.267 282.001 621.067 281.601 648 281.867C682.133 282.267 688 282.667 705.467 285.734Z" fill="black"/>
<path d="M611.333 294.135C609.2 294.401 600.4 295.601 592 296.801C538.267 304.001 483.2 327.068 435.6 362.268L424 370.935L429.2 377.201C432.133 380.535 435.867 384.935 437.6 386.801C439.333 388.801 452 403.335 465.867 419.201C479.6 435.068 491.2 448.001 491.467 448.001C491.867 448.001 495.067 445.601 498.8 442.801C508.133 435.335 526 424.801 540.4 418.135C563.733 407.335 583.067 401.601 609.333 397.868C631.867 394.668 669.467 395.868 691.6 400.535C726.133 407.868 760.133 423.335 787.867 444.268C792.533 447.735 796.8 450.668 797.2 450.668C798.267 450.668 864.133 375.201 864.4 373.735C864.8 370.935 833.733 348.935 811.2 336.135C778.533 317.601 735.867 302.935 696 296.535C682.667 294.401 621.867 292.668 611.333 294.135ZM646.533 316.135C658.533 320.401 658.667 349.601 646.667 353.601C645.467 354.001 646.133 356.401 648.933 362.001C651.2 366.401 653.467 371.335 654 373.068C654.8 376.001 654.533 376.135 650.4 375.735C646.533 375.335 645.6 374.535 643.067 368.668C637.733 356.935 636.667 355.335 634 355.335C631.733 355.335 631.333 356.268 631.2 362.668C631.067 376.001 631.067 376.001 626.667 376.001H622.667V345.335V314.668H632.533C637.867 314.668 644.133 315.335 646.533 316.135ZM688 318.668C693.467 319.468 698 320.268 698.133 320.401C698.267 320.535 698.133 322.401 697.733 324.401C697.067 328.001 696.8 328.135 690.8 327.335C687.467 326.801 683.733 326.135 682.4 325.868C679.467 325.068 679.067 326.001 678 335.468L677.067 343.601L685.2 344.535C692.667 345.335 693.333 345.735 693.333 348.801C693.333 353.068 691.467 353.601 683.333 352.135C679.6 351.468 676.267 351.201 675.733 351.735C675.333 352.268 674.533 356.668 674 361.468L673.067 370.268L681.867 371.335C690.533 372.135 690.667 372.268 690.667 376.135C690.667 378.535 690 380.001 688.933 380.001C684.533 380.001 664.533 376.935 663.867 376.135C663.2 375.601 670.133 324.535 671.867 316.268C672 316.135 673.333 316.268 675.067 316.535C676.667 316.935 682.533 317.868 688 318.668ZM601.733 321.468C607.867 326.135 611.333 343.868 608 352.668C606.533 356.401 597.733 361.201 592.267 361.335C589.2 361.335 589.2 361.601 590.133 370.535L590.933 379.601L587.333 380.535C585.333 381.068 583.467 381.201 583.067 380.935C582.267 380.135 573.6 322.135 574.133 321.468C575.067 320.401 584.667 318.935 591.467 318.801C596.533 318.668 599.2 319.335 601.733 321.468ZM721.733 325.601C723.333 326.935 724.133 330.535 724.8 340.001C726.133 359.335 726 359.201 737.333 345.335C745.333 335.468 747.733 333.468 749.867 334.135C754.667 335.601 755.067 336.935 752.933 343.601C751.733 347.068 747.733 359.735 744 371.601C736.933 393.868 736 395.468 730.667 392.001C729.067 391.068 729.733 388.001 734.533 372.668C737.733 362.801 740.133 354.268 739.733 353.868C739.333 353.468 735.467 357.468 731.2 362.535C726.8 367.601 722.933 371.868 722.533 371.868C721.467 372.001 720 363.735 719.867 356.668C719.867 353.735 719.333 350.135 718.667 348.668C717.467 345.468 718 344.135 710.667 367.068C705.467 382.935 704.933 384.001 702.267 383.201C700.667 382.801 698.933 382.001 698.4 381.468C697.867 380.935 700 372.135 703.333 362.001C706.667 351.735 710.533 338.935 712.133 333.601C715.2 323.601 716.933 322.135 721.733 325.601ZM563.467 348.001C567.467 360.135 570.667 372.135 570.667 374.668C570.667 383.468 563.733 389.201 552.533 389.601C543.333 390.001 540.533 386.135 532.8 361.868C525.067 337.868 524.533 334.135 529.467 333.601C532.8 333.201 533.2 333.735 540 354.935C543.733 366.935 547.867 377.735 549.067 378.935C551.333 381.601 554.933 382.001 558.8 380.001C562.8 377.868 562 372.401 554.667 349.735C551.067 338.401 548 328.668 548 328.001C548 326.668 551.6 325.468 554.533 325.868C555.733 325.868 558.933 333.868 563.467 348.001ZM509.333 345.201C511.333 348.935 511.2 349.201 505.333 351.468C498.933 354.001 496.8 357.201 498.533 361.601C500.267 366.135 502.267 367.335 512.667 370.535C537.6 377.868 538.667 399.735 514.4 406.801C511.467 407.601 510.4 407.335 509.333 405.335C507.333 401.735 507.733 400.001 510.4 400.001C513.867 400.001 520.933 395.201 522 392.135C522.933 389.201 520.8 384.268 517.467 381.735C516.267 380.801 512.933 379.735 509.867 379.335C501.867 378.001 494.4 373.335 491.067 367.335C485.6 357.601 488 350.935 498.933 345.468C506 342.001 507.6 342.001 509.333 345.201ZM786.267 350.935C795.333 355.868 795.867 356.401 794.533 359.068C793.6 360.668 792.8 362.135 792.667 362.401C792.4 362.668 789.2 361.335 785.467 359.468C781.733 357.601 778 356.001 777.067 356.001C775.2 356.135 769.333 366.668 769.333 369.735C769.333 370.801 772.4 372.935 776 374.668C782.667 377.735 784.267 380.535 781.2 383.601C780 384.801 778 384.401 773.2 381.868C769.6 380.135 766.133 378.668 765.333 378.668C764.667 378.668 762.267 382.268 760 386.668L756 394.668L758.933 396.535C760.667 397.601 764.267 399.468 767.067 400.801C772.667 403.468 772.8 403.735 770.133 407.468C768.267 409.868 767.867 409.868 756.8 404.401C750.533 401.201 745.333 398.001 745.333 397.201C745.333 396.268 749.467 387.735 754.533 378.135C759.6 368.535 765.6 356.935 767.867 352.401C772.533 342.935 771.6 343.068 786.267 350.935Z" fill="black"/>
<path d="M631.733 323.601C630.8 325.334 631.467 344.667 632.267 346.134C633.867 348.667 642.667 346.534 644.933 343.201C647.733 338.801 646.667 326.934 643.2 324.401C640.667 322.534 632.533 322.001 631.733 323.601Z" fill="black"/>
<path d="M584 328.934C584 330.134 584.667 336.134 585.6 342.267C587.067 352.801 587.333 353.334 590.667 353.334C592.533 353.334 595.467 352.401 597.2 351.201C600.133 349.067 600.267 348.267 599.6 340.401C598.8 329.867 596.4 326.667 589.067 326.667C585.2 326.667 584 327.201 584 328.934Z" fill="black"/>
<path d="M398.934 394.268C344.667 449.201 311.467 516.001 300.534 592.668C297.334 615.068 297.334 662.801 300.534 684.668C310.267 751.468 336 809.868 377.734 860.001C388.134 872.535 413.867 898.668 415.734 898.668C416.4 898.668 430.667 882.935 447.334 863.601C464.134 844.401 479.334 827.068 481.067 825.068L484.4 821.468L469.2 805.735C450.134 785.868 438.534 769.735 426.667 746.135C411.6 716.401 403.867 688.401 401.334 655.468C396 585.735 420.8 518.001 469.734 468.401L481.734 456.135L474.4 447.735C470.4 443.068 455.6 426.135 441.467 410.001C427.334 393.868 415.2 380.401 414.534 380.268C413.867 380.001 406.8 386.268 398.934 394.268Z" fill="black"/>
<path d="M858.267 400.268C849.867 410.001 834.933 427.335 824.933 438.668L806.933 459.335L813.867 466.668C833.333 486.935 849.067 509.468 860.533 533.601C869.6 552.535 874.933 568.135 879.6 590.135C882.933 606.001 883.2 609.601 883.2 637.335C883.2 664.801 882.933 668.668 879.6 684.135C869.467 732.135 848.933 771.201 815.467 806.401L804.267 818.135L837.867 856.668C856.4 877.868 872.267 895.468 873.2 895.735C875.067 896.401 899.067 872.268 910.133 858.668C946.933 813.201 971.333 761.868 982.533 706.001C994.667 645.468 989.867 579.868 969.067 522.135C957.2 488.935 933.733 447.201 911.867 420.535C901.067 407.201 877.2 382.668 875.067 382.668C874.267 382.668 866.667 390.668 858.267 400.268Z" fill="black"/>
<path d="M624.666 407.601C519.6 416.401 434.8 493.067 415.466 597.067C412.4 613.201 411.2 633.334 413.2 633.334C414.133 633.334 424 631.867 435.066 630.134C446.266 628.267 467.6 624.934 482.666 622.667C497.733 620.401 511.2 618.001 512.8 617.467C514.8 616.534 515.866 614.267 516.933 608.267C520.533 589.334 532.533 566.801 548.4 550.001C566 531.067 586.266 518.934 610 513.067C616.666 511.334 622.133 510.001 622.4 509.867C622.533 509.867 624.8 496.267 627.333 479.867C629.866 463.467 633.333 440.667 635.2 429.334C636.933 418.001 638.133 408.267 637.866 407.734C637.2 406.667 635.333 406.667 624.666 407.601ZM601.333 436.267C601.333 437.867 599.2 439.067 594 440.667C590 441.734 586.666 443.334 586.666 444.134C586.666 445.601 590.666 460.001 591.066 460.001C591.2 460.001 594.533 459.067 598.4 458.134C605.333 456.267 605.466 456.267 606.533 459.067C608.133 463.067 607.466 463.734 600.533 465.467C597.333 466.267 594.4 467.467 594 468.001C593.066 469.467 598 485.734 599.733 486.401C600.533 486.667 604.266 485.867 608 484.801C613.733 483.067 614.933 483.067 615.466 484.667C617.333 489.334 615.333 490.934 604.133 494.134C598 496.001 592.8 497.201 592.533 496.934C591.466 495.867 575.733 438.534 576.266 437.867C576.666 437.601 582 435.867 588.133 434.134C599.6 431.067 601.333 431.334 601.333 436.267ZM566.4 474.001C574.666 488.401 581.066 500.667 580.666 501.334C580.266 502.134 578.8 503.201 577.333 504.001C575.333 505.067 572.133 503.067 558.533 492.001C549.466 484.801 541.866 479.067 541.6 479.334C541.333 479.467 545.333 487.067 550.533 496.134C555.733 505.201 560 512.934 560 513.334C560 514.267 553.2 517.734 552.666 517.067C549.733 512.667 522.533 463.734 522.8 463.467C523.066 463.201 524.666 462.267 526.4 461.467C529.333 459.867 530.8 460.801 546.133 473.201C555.333 480.667 563.066 486.667 563.333 486.667C564 486.667 561.466 481.867 550.8 463.467C546.933 456.934 544.133 451.467 544.266 451.334C545.333 450.534 550.133 448.134 550.666 448.001C551.066 448.001 558.133 459.734 566.4 474.001ZM508.8 491.334C516.133 494.934 532.666 510.801 536.4 517.601C541.866 527.867 536.133 540.401 524.933 542.267C518.266 543.334 510.266 539.067 498.8 528.534C486.933 517.601 481.6 507.734 483.866 500.934C485.333 496.401 490.933 490.267 494.666 488.934C498.666 487.467 502.266 488.134 508.8 491.334ZM468.4 526.934C470.4 528.534 470.533 529.067 468.666 532.534C467.466 534.667 466.933 537.201 467.2 538.267C467.6 539.201 478.133 545.067 490.666 551.334C503.066 557.601 513.333 563.067 513.333 563.467C513.333 564.134 510.8 569.467 509.866 570.401C509.733 570.667 499.2 565.601 486.533 559.067C473.866 552.667 462.933 547.201 462.4 546.934C461.866 546.667 460.4 548.667 459.066 551.201C456.666 556.401 455.866 556.801 452 554.667C449.466 553.334 449.733 552.534 456.266 539.334C460.133 531.601 463.866 525.334 464.666 525.334C465.466 525.334 467.2 526.134 468.4 526.934ZM451.866 572.801C452.133 573.067 451.466 574.401 450.266 575.734C446.4 579.867 446 586.001 449.2 589.201C453.333 593.334 456.8 592.667 468 586.001C474.4 582.134 479.466 580.001 482.266 580.001C496.933 580.001 504.266 592.667 497.066 605.467C493.866 611.201 493.733 611.201 488.666 609.334L485.066 608.001L488.533 603.867C492.533 599.201 492.933 595.201 489.733 591.734C486.266 587.867 480.266 588.801 470.8 594.667C466 597.467 460.533 600.267 458.4 600.667C453.066 601.867 446 599.201 441.866 594.267C438.933 590.801 438.533 589.201 438.933 583.867C439.333 580.267 440.666 575.867 441.866 574.001C443.733 571.067 444.933 570.534 447.733 571.334C449.733 571.867 451.6 572.401 451.866 572.801Z" fill="black"/>
<path d="M493.6 498.934C488.8 503.734 496.533 516.667 510.8 527.467C520.133 534.534 523.2 535.201 527.6 531.467C532.266 527.467 531.2 523.734 523.066 514.534C509.6 499.734 498.666 493.867 493.6 498.934Z" fill="black"/>
<path d="M646.667 409.067C646.667 410.401 648.8 425.334 651.467 442.134C654.134 458.934 657.6 481.067 659.2 491.201L662 509.734L674.667 512.801C699.2 518.934 724.267 534.801 741.2 555.067C751.2 566.934 763.067 590.001 766.934 605.334C768.534 611.601 770.4 617.067 771.067 617.467C771.734 618.001 775.067 618.667 778.534 619.067C781.867 619.467 804.134 622.934 827.867 626.667C851.6 630.401 871.334 633.067 871.734 632.667C873.067 631.334 871.867 615.067 869.2 598.667C858.8 536.001 822.4 480.267 768.8 444.934C735.2 422.934 699.2 410.801 657.067 407.334C647.467 406.667 646.667 406.801 646.667 409.067ZM684.4 433.334C684.4 434.401 682 448.134 679.2 463.601L674.267 492.001H670.534C668.534 492.001 666.534 491.601 666.267 490.934C665.867 490.401 666.934 482.534 668.667 473.334C670.4 464.134 672.8 450.801 674 443.601L676.4 430.534L680.534 430.934C683.2 431.201 684.534 432.001 684.4 433.334ZM720 441.601C726 444.667 727.867 448.134 725.467 451.867C724.534 453.467 723.6 453.201 720.667 450.801C716.267 447.467 710.4 447.201 707.467 450.134C704.134 453.467 704.934 459.467 710.134 469.067C714 476.401 714.8 479.067 714.267 483.601C712.667 498.667 697.6 504.801 686.534 494.934C682.934 491.734 682.667 490.934 683.867 487.601L685.334 483.734L689.467 487.201C696.667 493.201 705.334 490.801 705.334 482.801C705.334 480.801 703.2 475.067 700.667 469.867C695.334 459.334 694.8 453.334 698.667 446.934C701.2 442.801 707.6 438.801 712 438.667C713.2 438.667 716.8 440.001 720 441.601ZM750.267 457.067L753.2 459.334L739.334 480.667C731.734 492.401 725.467 502.667 725.334 503.467C725.334 504.401 728.4 506.934 732 509.334C738.934 513.867 740 515.867 736.667 518.667C734.934 520.134 733.467 519.601 727.6 516.001C723.867 513.601 719.067 510.667 717.067 509.467C714.934 508.267 713.334 506.801 713.334 506.134C713.334 504.534 745.467 454.667 746.534 454.667C746.934 454.667 748.667 455.734 750.267 457.067ZM794.934 492.934C796.267 494.134 797.334 495.601 797.334 496.134C797.334 496.667 789.734 508.934 780.534 523.334L763.6 549.467L760.534 546.534L757.467 543.601L760.667 538.134L764 532.534L758.8 527.467L753.734 522.534L748.8 525.467L743.734 528.401L740.534 525.201L737.334 521.867L764.267 506.267C779.2 497.734 791.6 490.667 791.867 490.667C792.267 490.667 793.6 491.601 794.934 492.934ZM823.2 528.801C824.8 532.801 823.867 534.267 810.667 549.334C803.334 557.601 797.6 564.667 797.867 564.934C798.134 565.334 806 561.467 815.334 556.667C824.534 551.734 832.267 547.867 832.534 548.134C833.867 549.601 836.134 554.934 835.734 555.334C834.534 556.534 782.8 582.667 781.734 582.667C781.067 582.667 779.734 581.201 778.934 579.334C777.6 576.267 778.4 575.067 790.267 561.734C797.334 553.867 804.134 546.134 805.2 544.801C806.4 543.334 799.334 546.267 788.8 551.734C778.534 557.067 770.134 561.201 770 561.067C768.4 559.067 766.667 554.267 767.2 553.734C768.667 552.267 819.334 526.801 820.8 526.667C821.734 526.667 822.8 527.601 823.2 528.801ZM844 576.401C844 576.534 844.934 580.934 846 586.001C849.334 602.001 845.467 608.801 829.734 614.667C820.134 618.267 803.067 619.734 797.334 617.334C795.067 616.401 792 614.001 790.534 611.867C788.134 608.401 782.934 591.201 784.134 590.134C784.667 589.734 840.667 576.401 843.067 576.134C843.6 576.001 844 576.134 844 576.401Z" fill="black"/>
<path d="M814.667 591.601C804 594.134 794.934 596.667 794.534 597.067C794.134 597.601 794.267 600.001 794.934 602.401C795.867 605.734 797.334 607.334 801.067 608.934C805.467 610.801 807.067 610.801 816.267 608.934C834.534 605.334 841.067 600.134 839.2 590.801C838.134 585.734 839.2 585.734 814.667 591.601Z" fill="black"/>
<path d="M642.8 524.668L642.667 636.668L658.134 621.201L673.6 605.601L667.467 566.535C664.134 544.935 657.467 502.135 652.667 471.335C647.867 440.535 643.734 414.668 643.467 414.001C643.067 413.201 642.8 463.068 642.8 524.668Z" fill="black"/>
<path d="M604.533 526.534C576.133 536.267 551.6 557.201 538.4 583.201C534 591.734 526.533 613.334 527.467 614.801C527.733 615.201 534.667 614.534 542.933 613.201C551.2 611.867 568.667 609.201 581.6 607.201C594.667 605.201 605.867 603.201 606.667 602.667C607.867 601.867 615.733 556.267 619.333 529.601C620.4 521.201 620.267 521.067 604.533 526.534Z" fill="black"/>
<path d="M664.533 526.268C665.2 529.735 668.667 551.468 674.267 588.002C675.467 595.735 676.667 602.268 676.933 602.535C677.733 603.602 755.333 615.602 756.267 614.802C757.733 613.468 753.6 599.068 748.667 588.402C734.667 558.002 708.8 535.335 676.8 525.468C664.667 521.735 663.6 521.735 664.533 526.268Z" fill="black"/>
<path d="M596 608.134C590.666 609.201 546.4 616.134 448.8 631.334C432.8 633.867 419.333 636.134 418.933 636.534C418.533 637.067 468.533 637.334 530.133 637.334H642L626.666 622.001C609.866 605.201 610.266 605.334 596 608.134Z" fill="black"/>
<path d="M644 638.267C644 640.667 673.067 668 675.467 668C676.8 668 714.667 662.267 759.333 655.333C804.133 648.267 846.267 641.733 853.2 640.667C860.133 639.6 866 638.4 866.4 638C866.8 637.6 816.933 637.333 755.6 637.333C694.267 637.333 644 637.733 644 638.267Z" fill="black"/>
<path d="M626 654.267C617.6 663.067 611.466 670.4 611.6 671.733C612 675.067 625.733 762.933 633.466 811.867C637.066 834.933 640 855.2 640 856.933C640 858.533 640.533 860 641.333 860C642.8 860 643.2 642.8 641.6 640.533C641.066 639.733 634.533 645.467 626 654.267Z" fill="black"/>
<path d="M412.533 653.866C414.533 683.466 422.666 712.533 436.666 740.666C467.6 802.666 525.733 847.866 593.6 862.533C608.266 865.733 636 868.533 637.466 867.066C638 866.533 636.666 855.2 634.533 842C632.4 828.8 629.466 809.6 628 799.333C623.333 767.466 622.666 764 620.266 764C610 764 581.6 752.266 567.466 742.133C543.333 724.8 524.133 696.533 517.466 668.4C515.466 659.6 514.533 657.866 511.866 656.933C510.133 656.4 489.2 652.933 465.333 649.333C441.466 645.6 419.6 642.266 416.8 641.733L411.6 640.933L412.533 653.866ZM489.466 660.8C492.266 662.133 494.666 665.2 496.666 669.733C500 677.2 502.266 688 500.4 688C499.866 688 486.4 690.933 470.666 694.666C450.8 699.2 441.866 700.8 441.2 699.733C439.333 696.666 437.2 682.266 438.133 678.266C439.333 672.4 441.333 669.6 446.533 666.4C457.6 659.466 481.066 656.4 489.466 660.8ZM506.266 696.4C507.6 699.2 506.666 700.666 498.4 710.133C493.333 715.866 486.666 723.6 483.733 727.066L478.266 733.6L496.133 724.533C506 719.466 514.4 715.2 514.8 714.933C516 714.4 518.933 721.733 517.733 722.666C516 724.266 465.733 749.333 464.4 749.333C463.6 749.333 462.4 748 461.733 746.266C460.4 743.466 461.333 742 469.6 732.533C474.666 726.8 481.333 719.066 484.4 715.333L490 708.8L471.466 718.4C461.2 723.733 452.8 727.866 452.666 727.733C451.866 726.666 449.333 721.466 449.333 720.8C449.333 719.866 501.466 693.466 503.466 693.466C504.266 693.333 505.6 694.666 506.266 696.4ZM524.666 728.533C526.666 731.6 526.666 732.133 523.733 737.2L520.666 742.666L525.6 747.6L530.533 752.533L536.133 749.466L541.6 746.4L544.4 749.2C546.933 751.6 547.066 752.266 545.333 753.733C542.4 756.4 494 784 492.266 784C491.466 784 490 782.8 488.933 781.2C487.066 778.666 488 776.8 502.8 753.733C518.266 729.6 521.2 725.333 522.133 725.333C522.4 725.333 523.6 726.8 524.666 728.533ZM561.2 761.466C567.2 765.333 572 768.933 572 769.6C572 770.266 564.666 782.133 555.866 796C541.333 818.666 539.333 821.066 537.066 819.866C535.733 819.066 534.266 817.733 533.866 816.8C533.466 815.733 538.133 807.2 544.133 797.866C550.133 788.4 556.4 778.4 558.133 775.733L561.333 770.8L554 766C550 763.466 546.666 761.066 546.666 760.533C546.666 759.466 549.333 754.666 550 754.666C550.266 754.666 555.333 757.733 561.2 761.466ZM592.4 776.133C594 776.933 596.666 778.8 598.266 780.266C600.666 782.533 600.933 783.466 599.733 786.933L598.4 790.8L595.466 788.133C587.6 780.8 578.666 782.4 578.666 791.2C578.666 793.733 580.8 800.133 583.333 805.466C588.533 816.266 588.933 819.6 586 825.333C581.6 834 571.466 837.2 562.8 832.8C556.933 829.733 555.6 827.466 557.466 823.466L559.066 820.133L562.933 823.333C567.866 827.6 573.866 827.733 576.533 823.733C579.6 819.333 579.2 816.4 574 806.133C568.8 795.866 568.133 788.933 571.333 782.666C574.933 775.733 585.333 772.533 592.4 776.133ZM617.2 783.866C618.666 784.8 618 790.266 613.733 814.133L608.533 843.333L604.266 843.733C601.6 844 600 843.6 600 842.533C600 840.533 609.333 786.8 610 784.266C610.666 782.4 614.533 782.133 617.2 783.866Z" fill="black"/>
<path d="M470.666 667.601C461.066 669.334 452.4 672.668 448.933 676.268C445.6 679.468 445.066 680.801 445.733 684.934C446.266 687.468 446.8 689.868 447.066 690.134C447.733 690.934 489.733 681.334 490.8 680.134C491.2 679.734 491.066 677.334 490.4 675.068C488.533 668.268 481.733 665.601 470.666 667.601Z" fill="black"/>
<path d="M844.666 645.334C832.266 647.334 811.466 650.667 798.666 652.667C767.2 657.467 770 656.267 768 665.067C757.6 712 720.666 750.267 674.4 762L662 765.067L654.133 815.867C649.733 843.867 646.533 866.934 646.933 867.334C647.333 867.734 654.133 867.467 662.267 866.8C759.2 858.267 840.533 789.734 865.2 695.6C868.4 683.467 871.733 661.6 872.133 650C872.533 642.934 872.266 642 869.866 641.734C868.533 641.6 857.2 643.2 844.666 645.334ZM797.2 665.2C798.8 666.134 798.533 667.067 796.133 670C790.8 676.934 793.6 685.334 801.066 685.334C803.066 685.334 809.2 682.534 814.666 679.334C821.466 675.2 826 673.334 829.333 673.334C840.133 673.334 848.4 683.6 845.466 693.467C843.333 700.667 840 704.134 836.4 703.2C832.933 702.267 832.4 699.734 835.333 697.334C838.4 694.8 838 685.734 834.8 684C830.133 681.6 825.866 682.534 817.2 688.267C806.266 695.334 798.8 696.4 792 691.734C784 686.267 782.666 676.4 788.666 667.2C790.8 663.867 794 663.2 797.2 665.2ZM799.466 716.134C812.4 722.8 823.066 728 823.2 727.867C823.466 727.6 824.666 725.334 825.866 722.934C828.133 718.534 829.866 717.867 833.333 720C835.066 721.067 834.266 723.467 828.4 735.334C824.533 743.067 820.8 749.334 820.133 749.334C814.8 749.334 813.2 745.334 816.666 740.8C817.733 739.334 818.666 737.734 818.666 737.2C818.666 736.667 807.866 730.667 794.8 723.867L770.933 711.467L772.8 707.734C773.866 705.734 775.066 704 775.466 704C775.866 704 786.666 709.467 799.466 716.134ZM772.4 735.734C785.733 743.334 801.333 762.134 801.333 770.534C801.333 778.267 792.666 786.667 784.666 786.667C772.666 786.667 745.333 760 745.333 748.4C745.333 744.4 749.733 737.467 754 734.667C759.466 731.067 764.8 731.334 772.4 735.734ZM747.466 785.867C760.933 809.6 761.6 811.2 759.333 812.8C757.866 813.867 756.133 814.667 755.466 814.667C754.666 814.667 748 809.867 740.666 803.867C733.333 798 725.6 791.867 723.466 790.267L719.466 787.467L723.6 794.667C741.066 825.2 740.133 823.2 737.733 824.934C736.533 825.867 734.8 826.667 733.866 826.667C733.066 826.667 725.466 814.934 717.2 800.534C703.067 775.867 702.4 774.134 704.667 772.534C706 771.467 707.867 770.667 708.8 770.667C709.6 770.667 717.2 776.134 725.466 782.8C733.866 789.6 741.466 795.734 742.533 796.534C743.6 797.334 742.666 794.667 740.4 790.667C738.133 786.667 733.466 778.534 730.133 772.667L724.133 762L727.066 759.734C729.333 758 730.4 757.867 731.6 759.067C732.4 760 739.6 772 747.466 785.867ZM700.133 807.734C704.533 823.467 707.867 836.534 707.467 836.934C705.867 838.534 684.8 844 683.867 843.067C683.333 842.4 682.667 840.8 682.4 839.467C682.133 837.334 683.333 836.4 688.933 834.667C692.8 833.6 696.267 832.267 696.667 831.734C698.133 830.267 692.933 814.534 691.2 815.2C687.333 816.667 678.4 818.8 677.867 818.4C677.6 818 677.2 816.4 677.067 814.667C676.667 811.867 677.6 811.2 683.333 809.6C687.067 808.534 690.133 807.467 690.4 807.334C691.2 806.534 685.2 788 684.133 788C683.6 788 680 788.934 676.133 790.134C672.267 791.2 668.933 792 668.667 791.734C668.533 791.467 668 789.734 667.6 787.867C666.8 784.534 667.067 784.4 678.4 781.067C684.8 779.2 690.4 778 690.933 778.534C691.467 779.067 695.6 792.134 700.133 807.734Z" fill="black"/>
<path d="M756.267 742.935C752.667 746.535 754.4 752.801 761.067 760.135C768.267 768.268 781.867 778.668 785.2 778.668C786.534 778.668 788.934 777.201 790.667 775.335C793.734 772.001 793.734 771.868 791.6 767.201C788.8 761.335 778.4 750.268 771.067 745.201C765.2 741.201 758.934 740.268 756.267 742.935Z" fill="black"/>
<path d="M529.466 668.935C540 706.001 568.533 736.001 604.666 748.268C616.666 752.401 620 752.801 620 750.268C620 746.535 608.133 672.935 607.333 672.268C606.533 671.335 535.333 660.001 530.4 660.001H526.8L529.466 668.935Z" fill="black"/>
<path d="M741.334 661.467C737.334 662.134 722.267 664.534 708 666.667C693.734 668.934 680.8 671.067 679.2 671.334C676.667 671.867 676 674.934 670.667 709.6C667.6 730.267 664.667 748.267 664.267 749.6C663.467 752.8 666.667 752.667 677.467 749.2C687.2 746 702.134 738.8 710.267 733.2C723.734 723.867 738.934 706 747.2 689.734C750.4 683.334 757.334 663.867 757.334 661.2C757.334 659.734 751.334 659.867 741.334 661.467Z" fill="black"/>
<path d="M784.666 832.8C754.4 855.866 712.266 872.533 671.6 877.466C654.533 879.466 613.866 878.4 598.666 875.333C565.466 868.8 534.533 856.266 507.6 838.133C500.266 833.333 494.266 829.333 494.133 829.333C493.2 829.333 427.333 905.733 427.066 907.066C426.533 909.733 453.6 928.8 475.466 941.2C508.8 959.866 550.8 974.267 591.333 980.8C609.6 983.6 658 984.8 678.133 982.667C720.933 978.4 767.466 964.4 804 945.066C824.266 934.266 860.8 909.467 862.4 905.333C862.666 904.666 856.266 896.8 848.4 887.733C840.533 878.666 825.333 861.2 814.666 848.933C804 836.666 794.8 826.666 794 826.666C793.333 826.666 789.066 829.466 784.666 832.8ZM537.2 871.866C544.133 875.466 545.866 877.866 544 881.2C542.266 884.533 540.933 884.666 538.8 882.133C536 878.666 529.866 877.333 526.933 879.466C522.666 882.4 522.266 887.333 525.466 898C528.933 909.867 528.266 915.466 522.4 922C519.066 925.866 517.466 926.666 513.066 926.666C507.333 926.666 504.4 925.466 497.6 920.4C493.866 917.6 493.466 916.8 494.8 914.267C495.733 912.667 496.533 911.067 496.8 910.8C496.933 910.667 499.2 911.867 501.6 913.733C508.533 918.933 511.466 919.333 515.333 915.467C519.333 911.467 519.466 908.266 516 898.266C512.8 889.2 512.666 884.666 515.466 879.333C520.8 869.066 527.2 866.8 537.2 871.866ZM763.466 872.666C764.533 876.8 765.066 876.133 756.266 880.533L749.333 884L753.333 892.133L757.466 900.133L765.066 896C772.133 892.266 772.8 892.133 774.266 894.266C777.066 898 776.266 899.333 768.666 903.066L761.333 906.666L766 914.933C768.533 919.6 770.933 923.2 771.333 923.066C771.733 923.066 775.333 921.2 779.333 919.2C786.533 915.466 786.533 915.333 788.533 918C789.733 919.466 790.533 920.933 790.666 921.333C790.666 922.533 767.866 934.8 766.666 934C765.333 933.2 738.666 883.6 738.666 881.866C738.666 880.533 758.4 869.6 760.933 869.466C761.866 869.333 762.933 870.8 763.466 872.666ZM556.666 882.933C558.933 884 559.866 885.2 559.333 886.533C558.933 887.733 555.2 897.2 551.2 907.6C543.866 926.667 542.666 932.8 545.6 935.733C547.866 938 554 937.733 556.133 935.2C557.2 934 561.733 923.6 566.266 912.133C574.133 892.133 574.666 891.333 578.133 891.6C580 891.733 582 892.133 582.4 892.533C583.066 893.333 573.066 920.8 567.2 934.133C562.133 945.733 555.733 948.8 545.6 944.666C532 938.933 531.6 933.733 542.4 905.866C546.666 894.933 550.533 884.933 551.066 883.6C552.133 880.933 552.266 880.933 556.666 882.933ZM742.933 913.867C752.533 942.933 752.666 943.866 746 944C743.6 944 742.4 941.333 737.6 926C734.4 916.133 731.466 908 730.8 908C730.133 908 729.2 913.333 728.8 920C728.266 926.533 727.333 932 726.666 932C726 932 722.133 928 717.866 923.2C713.6 918.4 709.866 915.066 709.6 915.733C709.333 916.533 711.733 925.066 714.8 934.533C717.866 944.133 720.133 952.266 719.866 952.533C719.6 952.933 717.733 953.466 715.733 954L712.266 954.933L703.6 928.4C698.8 913.866 694.4 901.066 694 899.866C693.466 898.533 694.4 897.2 696.933 896.133C700.4 894.533 700.933 894.8 706 900.266C708.933 903.466 713.866 908.933 717.066 912.667L722.666 919.333L722.8 915.333C722.8 913.067 723.333 906 723.866 899.6C724.933 887.333 726.266 884.933 731.2 885.6C733.333 886 735.466 891.066 742.933 913.867ZM599.333 896.8C608.4 898.4 614.266 902.133 616 907.2C618.933 916.267 614.133 933.733 607.466 938.133C604.666 939.866 602.266 940.133 596.133 939.6L588.4 938.8L586.933 946.933C586.133 951.333 585.2 955.2 584.933 955.6C583.466 956.933 577.333 954.133 577.333 952.133C577.333 950.933 579.733 937.733 582.666 922.666C585.6 907.6 588 895.066 588 894.8C588 894.533 589.333 894.666 591.066 895.066C592.666 895.466 596.4 896.266 599.333 896.8ZM689.066 902.266C688.666 905.733 688.133 906.133 680.266 907.2L671.733 908.4L672.666 913.2C673.066 915.867 673.733 919.733 674.133 921.866L674.933 925.6L683.333 924.666C691.466 923.866 691.6 923.866 692.266 927.333C693.066 931.466 693.066 931.466 683.6 932.666L675.733 933.733L676.666 941.866C677.2 946.266 677.866 950.533 678.266 951.066C678.666 951.6 682.933 952 687.733 951.733C696.533 951.333 696.666 951.466 697.066 954.8C697.466 958.266 697.333 958.266 684.666 960C677.6 960.933 671.6 961.333 671.2 960.933C670.133 960 662.133 902.666 662.933 902C663.866 901.066 678 899.066 684.4 898.8C689.2 898.666 689.466 898.933 689.066 902.266ZM650.933 904.533C660 910.4 659.466 933.2 650.266 939.333L646.933 941.466L650.266 949.066C656.533 963.333 656.533 962.666 651.466 962.666C647.2 962.666 646.8 962.266 643.2 953.6C638.933 943.2 636.933 940.666 634.133 941.733C632.4 942.4 632 944.666 632 952.666V962.8L627.866 962.4L623.733 962L624 932.8C624 916.666 624.4 903.066 624.933 902.266C626.266 900.133 646.933 901.866 650.933 904.533Z" fill="black"/>
<path d="M595.467 905.067C595.2 905.6 594 911.333 592.667 917.867C590.267 930.8 590.667 932 597.467 932C601.733 932 604.667 928.8 606.533 922C608.4 915.067 608.4 911.733 606.4 908.933C604.533 906.533 596.4 903.6 595.467 905.067Z" fill="black"/>
<path d="M633.333 922.133V935.066L639.066 934.133C646.266 933.066 648 930.533 648 921.733C648 913.066 644.933 909.333 638 909.333H633.333V922.133Z" fill="black"/>
</g>
<defs>
<clipPath id="clip0_43_2">
<rect width="1288" height="1277.33" fill="white"/>
</clipPath>
</defs>
</svg>
